ply
format ascii 1.0
comment https://github.com/mikedh/trimesh
element vertex 206
property float x
property float y
property float z
element face 408
property list uchar int vertex_indices
end_header
-1.60816741 5.14646339 8.51484394
4.49422407 8.91794968 1.35903549
-7.92404747 1.24304056 -6.10239077
6.34783363 7.71149588 1.11621523
3.85290766 5.23118353 7.71906471
-0.11210428 3.71904278 9.33617973
-8.47773075 -1.90133321 5.04597998
-9.28226185 -2.88679457 -2.70188093
-7.64221334 -0.93482518 -6.45993662
-1.56319356 1.88385212 -9.78783226
1.69396555 4.83525276 -8.64632416
6.55478287 6.90103436 -3.34733963
2.59287548 8.69567585 4.28112793
-3.08819962 8.77185440 -3.79337382
2.07282948 8.37426949 -5.12257957
-7.38894987 5.55021715 -3.95469785
-5.69562674 3.57309937 -7.44705582
-9.95359802 0.94166136 1.05318725
7.38894987 5.55021715 3.95469785
0.15431926 1.14611804 9.99781704
3.08819962 -8.77185440 -3.79337382
7.38894987 -5.55021715 -3.95469785
-7.14719057 6.45232153 2.88517976
-5.44322014 8.08476353 2.40734220
-8.01183033 2.03450727 5.72674465
-6.45232153 2.88517976 7.14719057
-3.08942914 6.77373171 6.79761934
-4.87633181 6.05778074 6.42432976
-4.13975954 4.61134720 7.90085077
-4.88927317 7.56325388 4.54038286
-7.45140648 4.56031132 5.02769613
2.03986692 7.57198811 6.30549622
-0.77660859 7.73520088 6.40289354
1.62090278 9.89569664 0.67917407
2.44415474 9.36716270 2.79674244
-2.93584037 9.47417545 1.85371709
0.29209512 9.09663677 4.23656464
-0.89928544 9.93327999 1.45833659
-3.16117978 9.53131008 -0.49344406
3.78131628 8.64826012 -3.48777747
2.40143609 9.69934082 -1.26071119
-1.69802916 7.84448385 -6.04931307
1.15389347 7.18013906 -6.96739960
0.76248568 9.38735390 -3.47545624
-0.45549768 8.79693413 -4.85824490
-3.98196673 8.84305191 -2.72996855
-6.71863365 7.19133139 -2.08174109
-3.60347486 4.08421230 -8.46105957
-2.81648254 6.47449255 -7.18205166
-8.40466118 3.90310621 -3.96304464
-6.93510389 3.57045913 -6.37930679
-5.33131647 5.62118101 -6.38451147
-7.17819309 6.99013615 0.81846648
-9.90896893 0.18720157 -1.74144542
-9.21937180 2.51728296 -3.17804599
-8.56976795 5.25390053 -0.81348854
-9.47417545 1.85371709 2.93584037
-9.71617126 2.64493895 0.14481562
6.36550808 6.90821123 3.64727521
0.73694259 6.00945759 8.01448536
4.24934053 7.67159843 4.96232033
8.16169739 2.89836431 5.15872383
7.29033136 2.09399486 6.61550522
-1.68083942 1.26583016 9.87197876
-6.39309502 -2.06703472 7.49867630
0.01537903 -5.65745783 8.33153915
-4.22190237 -3.99690342 8.19828892
-3.05320072 -2.41834283 9.30399799
-3.03649473 2.53020167 9.22730827
-4.23656464 -0.29209512 9.09663677
-8.50991440 0.32439047 5.31237459
-9.53131008 -0.49344406 3.16117978
-9.37954807 -2.82276726 2.36679888
-9.09672451 -0.06807309 -4.25835848
-4.98441315 -8.74750423 -0.24170278
-7.50839710 -6.02806330 -2.88063598
-8.30638123 -5.66499090 -0.80417413
-5.73227453 -0.56862992 -8.26821518
-1.08224249 4.88514614 -8.70934868
-5.03840828 1.93145013 -8.50992870
-0.18075533 -5.23786163 -8.57292843
0.43906072 -1.11626840 -9.97861767
-1.75202334 -1.61417544 -9.80100250
3.99870729 5.44544649 -7.47684050
4.99529409 8.64127350 -1.12431622
3.76861739 7.37449408 -5.74014759
8.46385860 0.10479616 -5.41434145
8.63734531 3.95055056 -3.28649545
7.55197287 4.13601255 -5.25317955
7.14719057 -6.45232153 2.88517976
5.44322014 -8.08476353 2.40734220
6.45168161 -2.37363791 7.36782122
7.45140648 -4.56031132 5.02769613
8.24387360 -1.69984889 5.53045273
3.49251771 -6.97213316 6.38924980
4.27627134 -4.14947176 8.10699844
2.03450727 -5.72674465 8.01183033
4.88927317 -7.56325388 4.54038286
5.61214638 -5.32974339 6.39592648
-1.94706595 -7.45802832 6.48477125
0.82612395 -7.90629148 6.16549635
-1.62090278 -9.89569664 0.67917407
-3.05498958 -8.70022297 4.02617264
-3.69478250 -9.26764965 1.25837338
2.93584037 -9.47417545 1.85371709
0.89928544 -9.93327999 1.45833659
-0.95507580 -9.30783176 3.75041509
3.16117978 -9.53131008 -0.49344406
-3.91516614 -8.67437935 -3.30032253
-2.13174939 -9.73435879 -1.37955821
1.69802916 -7.84448385 -6.04931307
-2.09622145 -8.10766983 -5.57749510
-0.00157613 -6.98512220 -7.23410749
0.45549768 -8.79693413 -4.85824490
3.98196673 -8.84305191 -2.72996855
6.71863365 -7.19133139 -2.08174109
1.53186345 -5.58089161 -8.17833042
3.39296627 -4.15770960 -8.52447891
3.05829430 -6.52673626 -7.01810646
8.06087017 -3.64672327 -4.74114227
5.96958590 -3.12272882 -7.47325373
8.01025391 -2.03353453 -5.72929478
5.95012379 -5.04018974 -6.38795948
7.17819309 -6.99013615 0.81846648
8.49557495 -5.19507313 -1.43777609
9.10692692 -0.89924920 -4.07839108
9.87773418 -0.14990112 -1.96809638
9.39897919 -2.30559635 -2.67451286
9.28197002 -2.69800043 2.75249743
8.56867123 -5.22255993 0.16747615
2.87371182 -2.73716545 9.23141861
2.15280128 -0.62209803 9.79131031
8.00838661 0.03742194 6.05473757
5.63288450 0.38627228 8.33599567
4.87042284 2.27985930 8.51475048
2.05328274 2.09996080 9.59753513
-5.18568516 -7.71814680 3.80897021
-6.65269899 -6.06419849 4.45627737
-4.08338594 -7.19530678 5.69322729
-7.72095680 -4.01591635 5.04411697
-6.00690889 -4.54678297 6.69082975
-4.26916885 -6.03369141 6.78926229
-3.28932643 -6.54613161 -6.87734509
-5.05761385 -5.07838726 -7.03717518
-4.42414141 -7.40590191 -5.14187765
-5.76270866 -6.95673752 -4.37267733
-6.70026684 -3.38510132 -6.69562483
5.94209385 -0.84080148 -8.05940151
4.73369360 0.97298360 -8.80549622
4.23633718 -2.05342317 -8.87108898
2.80596852 -1.66101038 -9.49172783
3.11279345 2.67970681 -9.18224144
9.13645935 0.64549899 4.08504581
9.68128967 1.66101813 2.16447854
9.18997669 3.72711229 1.59507871
10.02830410 0.90788901 0.16912077
9.59523296 2.53498960 -1.49353635
8.15691185 5.79714298 1.02068889
-2.07850075 8.82054234 4.32900333
-0.89013827 9.84178829 -2.01224399
-5.37667179 8.50598717 -0.44639790
-5.11429214 7.23111582 -4.82257700
-8.60475826 4.62039614 2.44687104
2.19531727 4.29066086 8.83020020
5.91086817 4.92560959 6.51921320
-4.62039614 2.44687104 8.60475826
-6.71491003 0.11014532 7.52306795
-1.11012292 -2.68713951 9.64858246
-8.56470966 -2.35940003 -4.72023344
-7.53055525 -6.65518761 0.73990130
-9.97285080 -1.25701153 -0.01038344
-9.38735390 -3.47545624 -0.76248568
0.26549494 3.09796095 -9.56732845
-2.30730200 -3.42704558 -9.19129753
-3.00284219 0.47039291 -9.56787682
-0.19961855 6.33462620 -7.79051733
6.91555452 7.20792627 -1.19269872
7.34127712 2.53611183 -6.42043781
6.09379053 6.09242392 -5.15079451
2.07850075 -8.82054234 4.32900333
0.89013827 -9.84178829 -2.01224399
-0.76248568 -9.38735390 -3.47545624
5.37667179 -8.50598717 -0.44639790
5.11429214 -7.23111582 -4.82257700
8.60475826 -4.62039614 2.44687104
8.67410946 -3.74114871 -3.45045543
9.56568146 -1.08256269 2.93436050
9.76923180 -2.46647978 0.13149750
0.25317478 -0.82147473 10.00011730
1.17143810 -3.17686129 9.46152306
4.78769493 -1.71267581 8.66048717
3.46883464 1.15055394 9.37419415
-8.32256508 -5.17875767 2.39703131
-6.08711481 -7.66288805 2.28305054
-2.23307586 -5.18680620 8.31860352
-4.50019646 -2.81640482 -8.58175278
-2.52261591 -5.45990896 -8.05052376
-6.24361753 -7.66545773 -1.82941151
-7.01141405 -5.16760397 -5.06550360
5.56300020 3.40299129 -7.70084810
6.93890285 0.38762978 -7.25854731
0.72698337 -3.35739279 -9.44924164
2.18924332 0.51871455 -9.82148361
8.67410946 3.74114871 3.45045543
9.04557610 1.78378606 -4.01053858
8.88007736 4.65387774 -1.00451100
3 52 23 160
3 52 22 23
3 22 29 23
3 25 30 24
3 28 26 27
3 28 0 26
3 30 22 162
3 29 22 30
3 28 25 165
3 30 25 27
3 28 27 25
3 29 27 26
3 27 29 30
3 23 35 160
3 160 35 38
3 29 35 23
3 29 158 35
3 32 0 59
3 36 32 31
3 29 26 158
3 32 158 26
3 59 31 32
3 26 0 32
3 1 33 34
3 32 36 158
3 36 12 34
3 36 31 12
3 34 33 37
3 36 34 37
3 35 158 37
3 36 37 158
3 38 45 160
3 37 38 35
3 37 159 38
3 159 13 45
3 38 159 45
3 40 1 84
3 43 40 39
3 37 33 159
3 40 159 33
3 84 39 40
3 33 1 40
3 14 42 44
3 175 41 42
3 41 44 42
3 40 43 159
3 43 14 44
3 43 39 14
3 13 44 41
3 13 159 44
3 44 159 43
3 13 161 45
3 15 46 161
3 45 161 46
3 46 160 45
3 48 175 78
3 51 48 47
3 13 41 161
3 48 161 41
3 78 47 48
3 41 175 48
3 2 49 50
3 48 51 161
3 51 16 50
3 51 47 16
3 50 49 15
3 51 50 15
3 15 161 51
3 52 160 46
3 46 15 55
3 22 52 162
3 55 162 52
3 52 46 55
3 54 2 73
3 57 54 53
3 73 53 54
3 49 2 54
3 24 56 70
3 70 56 71
3 30 56 24
3 30 162 56
3 57 17 56
3 15 49 55
3 54 57 55
3 54 55 49
3 57 53 17
3 56 162 57
3 162 55 57
3 34 12 60
3 34 60 1
3 60 58 1
3 58 3 1
3 12 31 60
3 4 60 31
3 163 4 59
3 59 4 31
3 61 62 132
3 134 62 164
3 61 164 62
3 4 164 60
3 4 134 164
3 61 203 18
3 164 61 18
3 164 58 60
3 18 58 164
3 28 68 0
3 28 165 68
3 68 63 0
3 63 5 0
3 166 24 70
3 69 166 64
3 25 166 165
3 25 24 166
3 167 194 65
3 194 167 67
3 166 69 165
3 64 66 67
3 69 64 67
3 167 188 63
3 19 63 188
3 67 167 63
3 69 67 63
3 68 165 63
3 69 63 165
3 70 71 6
3 17 71 56
3 17 170 71
3 72 71 170
3 6 71 72
3 17 53 170
3 7 170 53
3 168 7 73
3 73 7 53
3 169 197 74
3 197 169 76
3 7 171 170
3 7 75 76
3 171 7 76
3 76 169 192
3 171 76 192
3 171 72 170
3 192 72 171
3 50 16 79
3 50 79 2
3 79 77 2
3 77 8 2
3 16 47 79
3 9 79 47
3 172 9 78
3 78 9 47
3 173 201 80
3 201 173 82
3 9 174 79
3 9 81 82
3 174 9 82
3 82 173 195
3 174 82 195
3 174 77 79
3 195 77 174
3 10 175 42
3 42 14 85
3 85 83 42
3 83 10 42
3 14 39 85
3 11 85 39
3 176 11 84
3 84 11 39
3 177 204 86
3 204 177 88
3 11 178 85
3 11 87 88
3 178 11 88
3 88 177 199
3 178 88 199
3 178 83 85
3 199 83 178
3 123 90 182
3 123 89 90
3 89 97 90
3 91 92 93
3 95 96 94
3 92 89 184
3 97 89 92
3 95 94 98
3 92 91 98
3 95 98 91
3 98 97 92
3 94 97 98
3 90 104 182
3 182 104 107
3 97 104 90
3 97 179 104
3 106 100 99
3 97 94 179
3 100 179 94
3 99 100 65
3 94 96 100
3 65 100 96
3 106 102 103
3 101 106 103
3 100 106 179
3 106 99 102
3 106 101 105
3 104 179 105
3 106 105 179
3 107 114 182
3 105 107 104
3 105 180 107
3 180 20 114
3 107 180 114
3 181 109 108
3 105 101 180
3 109 180 101
3 108 109 74
3 101 103 109
3 74 109 103
3 113 111 112
3 110 113 112
3 109 181 180
3 181 111 113
3 181 108 111
3 20 113 110
3 20 180 113
3 113 180 181
3 20 183 114
3 21 115 183
3 114 183 115
3 115 182 114
3 80 116 112
3 122 118 117
3 20 110 183
3 118 183 110
3 117 118 116
3 110 112 118
3 116 118 112
3 122 120 121
3 119 122 121
3 118 122 183
3 122 117 120
3 119 185 21
3 122 119 21
3 21 183 122
3 123 182 115
3 115 21 124
3 89 123 184
3 129 184 123
3 123 115 124
3 124 129 123
3 86 125 121
3 187 127 126
3 126 127 125
3 119 121 185
3 125 185 121
3 125 127 185
3 186 152 93
3 92 128 93
3 92 184 128
3 155 186 187
3 93 128 186
3 187 186 128
3 21 185 124
3 185 127 124
3 127 187 124
3 126 155 187
3 128 184 187
3 187 129 124
3 184 129 187
3 96 189 65
3 65 189 167
3 95 130 96
3 167 189 188
3 131 188 189
3 96 130 189
3 131 189 130
3 62 134 133
3 95 91 190
3 133 190 91
3 132 91 93
3 91 132 133
3 62 133 132
3 0 5 59
3 59 5 163
3 63 19 5
3 4 163 134
3 191 134 163
3 135 5 19
3 191 163 135
3 5 135 163
3 130 95 190
3 188 131 19
3 135 19 131
3 191 133 134
3 190 133 191
3 135 131 191
3 130 190 131
3 191 131 190
3 103 193 74
3 74 193 169
3 102 136 103
3 169 193 192
3 137 192 193
3 103 136 193
3 137 193 136
3 99 65 194
3 67 66 194
3 102 99 138
3 141 138 99
3 141 99 194
3 66 141 194
3 70 6 166
3 72 192 139
3 72 139 6
3 66 64 140
3 140 64 139
3 6 64 166
3 64 6 139
3 136 102 138
3 141 66 140
3 192 137 139
3 138 141 140
3 139 137 140
3 136 138 137
3 140 137 138
3 112 196 80
3 80 196 173
3 111 142 112
3 173 196 195
3 143 195 196
3 112 142 196
3 143 196 142
3 108 74 197
3 76 75 197
3 111 108 144
3 145 144 108
3 145 108 197
3 75 145 197
3 2 8 73
3 73 8 168
3 77 195 146
3 77 146 8
3 75 7 198
3 7 168 198
3 198 168 146
3 8 146 168
3 142 111 144
3 145 75 198
3 195 143 146
3 144 145 198
3 146 143 198
3 142 144 143
3 198 143 144
3 121 200 86
3 86 200 177
3 120 147 121
3 177 200 199
3 148 199 200
3 121 147 200
3 148 200 147
3 80 201 116
3 117 116 201
3 82 81 201
3 120 117 149
3 150 149 117
3 150 117 201
3 81 150 201
3 175 10 78
3 78 10 172
3 83 199 151
3 83 151 10
3 81 9 202
3 9 172 202
3 202 172 151
3 10 151 172
3 147 120 149
3 150 81 202
3 199 148 151
3 149 150 202
3 151 148 202
3 147 149 148
3 202 148 149
3 93 152 132
3 61 132 152
3 186 155 153
3 186 153 152
3 154 203 153
3 152 203 61
3 152 153 203
3 86 204 125
3 126 125 204
3 88 87 204
3 156 155 126
3 156 126 204
3 87 156 204
3 1 3 84
3 84 3 176
3 58 18 157
3 58 157 3
3 87 11 205
3 11 176 205
3 205 176 157
3 3 157 176
3 156 87 205
3 18 203 157
3 203 154 157
3 155 156 205
3 157 154 205
3 153 155 154
3 205 154 155
