ply
format ascii 1.0
element vertex 856
property float x
property float y
property float z
element face 1708
property list uchar int vertex_indices
end_header
5.791620 -3.922510 -4.864820
8.332720 -4.809020 -4.784540
-14.738500 -3.725730 -1.624980
-13.838400 -2.412030 -3.401040
-16.228300 -2.586070 -2.600750
-11.423500 1.573230 -4.145480
-4.529410 7.063720 -2.372200
-0.656613 6.309760 -2.732700
12.242500 3.091550 -0.592691
10.643000 4.062880 0.439820
9.808360 1.875500 3.557590
-5.485440 5.097540 -3.611390
-3.976320 3.894380 -4.487330
-7.791370 3.999490 -3.613650
-6.179460 2.876560 -4.512160
9.101190 0.718195 -4.642250
1.676590 -4.541630 0.362348
1.912250 -3.799590 2.669950
-0.867836 -3.349840 0.513291
-2.424440 -3.192810 2.389710
11.503500 -1.520980 -3.771830
9.204630 -1.290430 -4.946220
10.622100 -5.753830 -4.267290
2.198410 -3.579250 -3.603290
-7.892080 6.353750 -1.578250
-15.310000 -0.586062 -3.226820
-10.063600 -0.373096 -4.602220
-7.806230 -1.308020 -4.504940
-4.706970 -1.488420 -4.721250
14.243100 -6.826740 -0.526851
13.465600 -0.377168 1.723690
-0.115871 -1.904210 -5.018250
-1.640720 -2.655320 -3.625460
0.652891 -1.503310 4.623870
5.272290 -5.874650 -1.626910
3.718570 -4.777170 -2.612770
-0.140178 -3.689120 -2.603480
3.012860 -2.403250 4.329300
-0.873781 -2.703170 3.592920
-6.254630 -2.798520 2.589900
9.112230 4.684460 1.343420
5.999640 3.874110 -1.485950
7.443340 2.715620 -2.587630
9.789890 3.120740 -1.589160
13.345100 -4.750510 -3.155420
7.631900 1.794340 4.696420
4.522360 4.294430 2.565900
4.425330 -4.861870 2.622750
6.577930 -5.007880 3.758640
-6.249550 -2.462630 -3.477950
11.533500 1.808050 -2.757190
-12.204100 4.600160 1.258190
-10.221800 5.508360 0.665940
-2.312090 -1.440600 4.504690
7.577930 -6.819790 2.538710
6.067110 -6.763430 0.471318
-9.312900 3.572700 4.136580
-7.013640 4.451480 3.937170
-4.763690 5.245750 3.787250
3.465590 -2.867150 -4.901060
-3.218120 6.208350 -3.662650
-1.581820 4.960200 -4.457800
-12.795200 -0.377168 -4.151400
-17.400600 -0.143278 0.465573
-17.075300 -2.763850 0.440763
-8.543140 -1.260400 4.367170
-10.833100 -0.478097 4.890330
-13.236800 0.752758 4.632250
-5.488640 -1.272180 4.348230
12.140800 -1.474030 3.444680
12.712000 -6.874700 3.448590
-7.778110 -3.345200 1.545360
-6.247190 -3.524690 -0.556081
-9.312900 -3.096190 -2.061490
-10.086700 -2.394720 3.309250
-12.422100 4.686720 -0.590053
-14.545500 3.543130 -0.304974
9.768490 -5.954790 4.630260
-10.880200 4.199370 2.614250
-1.073100 4.897070 4.098320
-6.230410 6.093050 2.551830
-3.929940 7.031390 2.377380
-14.324900 3.492720 1.481720
-11.390300 2.639990 4.288680
-6.343390 7.428900 -0.589215
-16.035700 -0.481895 3.356460
-14.535300 1.726720 3.446660
2.061590 3.882690 3.474370
3.707850 4.804090 0.490344
-4.711640 -3.319570 1.389680
14.506700 -2.591720 1.503530
-16.172100 1.781200 1.449420
-15.457500 -2.602200 2.505450
-13.934200 -3.683310 1.498390
-13.145000 -2.198990 3.174920
11.376600 -7.376970 -2.687520
-2.411990 6.174790 3.504380
4.484150 -3.653930 -4.611920
5.249060 -4.339100 -4.232800
5.249060 -3.241340 -5.244830
6.756790 -3.561670 -5.274280
6.843680 -4.678870 -4.545950
6.007830 -2.526510 -5.658970
7.548320 -4.159420 -5.081940
5.843170 -4.946430 -3.809070
7.548320 -5.340640 -4.147480
8.327300 -3.553850 -5.300280
9.250050 -5.690840 -4.249040
9.850430 -4.890240 -4.806050
9.270660 -3.903170 -5.095030
8.242130 -5.953390 -3.713650
-16.120600 -3.383010 -1.431320
-15.271600 -3.227420 -2.412340
-13.910400 -3.263880 -2.494680
-14.677800 -2.958940 -2.950080
-13.108400 -3.699830 -1.597410
-13.901000 -4.047530 -0.537191
-15.528000 -3.713650 -0.552301
-14.700200 -1.499150 -3.634490
-13.132400 -1.431090 -3.964800
-13.145000 -2.958620 -2.949780
-15.260000 -2.335440 -3.142490
-12.359900 -2.356860 -3.412970
-16.638100 -1.470500 -2.447100
-15.872000 -1.470500 -3.150040
-17.007700 -2.582060 -1.572660
-10.845700 2.243880 -4.002720
-12.396500 1.856630 -3.688330
-12.236700 0.489813 -4.216670
-10.749600 0.722209 -4.528690
-10.101000 1.730690 -4.361390
-11.585200 2.749910 -3.357360
-5.428300 6.398570 -2.780250
-3.947970 6.691220 -3.055350
-3.257220 7.380040 -2.690760
-3.947970 7.718730 -1.978030
-5.509070 7.385170 -1.611880
-4.505960 5.921540 -3.397640
-4.528770 7.876550 -1.354660
-1.676010 7.209540 -2.610210
-0.293835 5.688970 -3.375950
-0.167447 6.083660 -1.586320
-1.062270 7.051310 -1.519260
-1.623660 6.182580 -3.686400
-0.882290 5.551720 -4.028590
0.265379 5.633380 -2.582870
11.192400 3.461840 -0.303248
12.651400 2.745790 0.254600
10.614000 3.378360 -0.992520
11.391500 3.004670 -1.648030
12.380200 2.134320 -1.854990
13.234600 2.143260 -0.716369
11.740200 3.416100 0.465573
9.782050 3.770430 -0.398829
11.036900 3.707990 1.341050
9.256340 4.427060 0.297366
10.005400 4.316240 1.569210
9.062120 2.916880 3.456180
9.622290 0.597713 4.429990
8.931840 1.624210 4.159970
10.195400 3.122500 2.681500
10.778800 2.035470 2.926440
10.655500 0.780127 3.641050
-6.863070 4.921740 -3.243450
-5.306940 3.799050 -4.201430
-6.293500 4.126410 -3.763610
-4.714390 4.515870 -4.082020
-3.918820 5.195840 -3.981500
-6.247220 5.615210 -3.071460
-4.750110 2.911500 -4.811290
-3.161570 3.015660 -5.010280
-2.489660 4.076690 -4.701630
-3.947970 2.394190 -5.158570
-3.028770 4.916280 -4.251600
-8.546480 4.570560 -3.116700
-9.272730 3.854180 -3.390700
-7.698060 2.708750 -4.385070
-8.733980 3.097040 -4.028090
-7.013640 3.411400 -4.071670
-7.824900 5.241060 -2.821310
-7.004710 1.744360 -4.980490
-5.480810 2.245360 -5.020240
-6.059890 1.575710 -5.165640
8.168120 1.457840 -4.482710
9.732310 -0.429490 -4.419190
7.722700 0.946844 -5.060750
8.443920 -0.164954 -4.983660
10.018800 0.962210 -4.054700
9.065070 1.942430 -3.647030
2.055970 -4.928870 -0.468520
2.780390 -5.232660 0.689078
0.708315 -3.515220 0.457806
0.948966 -4.324800 -0.550573
2.320440 -4.612210 1.468220
1.420200 -3.651920 1.483900
1.006830 -3.148910 2.497870
2.979430 -4.517090 2.362270
3.010540 -3.563550 3.415030
1.596380 -3.183880 3.312010
2.183390 -2.951970 3.874740
-2.254780 -3.792420 0.528762
-1.574500 -3.880140 -0.453224
-0.093695 -3.798110 -0.418328
-0.115871 -3.075960 0.941539
-0.739344 -2.971550 1.671120
-1.621320 -3.331740 1.517350
-3.322520 -2.920130 2.642090
-1.497910 -2.979580 2.684320
-3.947970 -3.123620 2.001980
-3.119510 -3.504360 1.423110
-2.344220 -2.511740 3.446350
10.294600 -1.682690 -4.477990
11.262500 -2.769090 -4.267990
12.006000 -2.611970 -3.451270
12.007400 -0.620382 -3.188050
10.820700 -0.424698 -3.869600
12.504500 -1.470500 -3.057130
8.349230 -1.427420 -5.222100
8.998310 -2.537270 -5.213890
9.963110 -2.584600 -4.904450
11.530300 -6.018230 -3.959830
9.847580 -6.224050 -3.952370
11.285100 -4.764840 -4.406740
10.607900 -6.769570 -3.425440
1.416970 -3.077070 -4.076010
2.199760 -2.657510 -4.707020
3.506220 -3.904200 -3.851030
1.352180 -3.902440 -2.751540
0.624617 -3.276500 -3.511350
2.949810 -3.275550 -4.260480
2.949810 -4.216600 -3.102790
2.331290 -4.355720 -2.412050
-9.198400 5.863940 -1.422140
-8.546480 5.688970 -2.123860
-6.972080 6.046590 -2.437420
-6.860650 6.853490 -1.376710
-7.647380 6.840340 -0.321416
-6.247220 6.726620 -2.072100
-8.674810 6.365800 -0.615691
-14.022800 -0.326209 -3.746980
-16.207200 -0.370146 -2.589440
-14.530800 0.519089 -3.220930
-15.439600 0.671456 -2.458780
-8.605630 -0.457094 -4.830270
-9.366560 0.802356 -4.760640
-10.057500 -1.674090 -3.783180
-11.620300 -0.418894 -4.297380
-10.845700 -1.002390 -4.180090
-9.171570 -1.331290 -4.298390
-7.189100 -0.566506 -5.023760
-7.013640 -1.963620 -4.057310
-8.546480 -1.877140 -3.976940
-7.780060 0.167818 -5.124790
-6.147200 -1.412490 -4.571460
-7.797820 -2.442160 -3.456300
-5.480810 -2.018270 -4.108100
-4.731660 -0.283514 -5.337230
-3.947970 -0.981080 -5.176430
-3.947970 -2.132030 -4.213840
-4.696090 -2.545490 -3.604240
-5.480810 -0.830450 -5.036440
-3.166650 -1.673230 -4.802890
14.470500 -5.854500 -1.557940
13.719700 -7.147730 -1.561530
14.817000 -5.986470 0.620154
13.997200 -7.251180 0.624095
13.582300 -7.678880 -0.352805
14.802200 -5.679480 -0.381610
13.411000 0.498757 1.296160
12.558400 0.547539 2.204180
14.173600 -0.377168 0.707282
13.946100 -1.256700 1.668620
13.160900 -1.289390 2.656100
12.455300 -0.150325 2.682170
-0.815512 -2.252440 -4.436170
-0.906822 -1.385450 -5.287400
0.635530 -1.301950 -5.545930
0.728124 -2.522860 -4.572090
-1.872900 -1.724690 -4.857930
-0.176999 -0.455232 -5.801290
-0.273920 -2.959300 -3.757010
-2.415130 -2.171800 -4.250790
-0.882290 -3.163280 -3.139990
-1.572980 -3.437230 -2.409640
-3.178650 -2.657310 -3.635550
-2.415130 -3.013530 -3.000810
-0.115871 -2.183230 4.176420
1.588000 -2.396470 4.147850
0.646503 -0.288630 5.260060
-0.115871 -0.868930 4.987200
-0.877408 -1.489270 4.588970
0.668707 -2.766040 3.622980
2.206010 -1.688110 4.669790
1.416970 -0.905343 5.021040
3.879700 -5.371810 -1.344750
4.482640 -5.335650 -2.110550
6.049480 -5.777030 -2.587230
6.194640 -6.426000 -1.329160
5.611780 -6.419750 -0.550573
5.060010 -5.259450 -2.805220
4.460960 -5.859660 -0.541948
4.587490 -4.639160 -3.537580
2.917900 -4.935940 -1.602300
0.543393 -4.130340 -1.526100
-0.873259 -3.980230 -1.549550
3.716220 -3.097300 4.009810
4.470450 -2.573650 4.550500
3.565100 -1.630070 4.878830
2.949810 -0.951477 5.063920
-1.648710 -2.066330 4.067780
-0.109504 -2.842880 2.491360
-7.013640 -3.179880 2.054270
-6.243800 -3.385080 1.407860
-5.480810 -3.129220 2.007180
-5.483760 -2.126410 3.422410
-7.004150 -2.171190 3.432340
-7.692680 -2.813160 2.674660
-4.710160 -2.752040 2.584630
-6.247220 -1.822220 3.840900
7.565920 5.107510 1.460030
9.159580 4.207760 2.491190
8.336260 4.633150 0.587911
8.190820 4.736090 2.333690
4.648980 4.484120 -1.799680
6.164460 3.342210 -2.793700
6.781900 3.374860 -2.005420
6.817270 4.171100 -0.657696
5.249060 4.513810 -1.031670
5.196620 3.936650 -2.604170
7.363660 3.532450 -1.380560
5.848200 4.653310 -0.366965
7.599770 2.063120 -3.769380
8.314740 2.315750 -3.053370
8.290100 3.045930 -1.774380
6.514000 2.758520 -3.429600
9.079660 2.571730 -2.504370
10.566300 2.696850 -2.430970
9.847580 2.324600 -3.061600
9.081160 3.437800 -1.047770
12.369100 -4.734250 -3.871560
13.693400 -5.829880 -2.629340
13.688000 -3.661960 -2.599160
12.624100 -3.884220 -3.432210
12.670700 -5.669190 -3.480890
14.044900 -4.750510 -2.413850
11.792400 -3.657170 -4.145210
10.742600 -3.684650 -4.719940
6.756100 2.895460 4.426430
8.314740 2.406100 4.068490
7.484890 0.543293 5.365420
6.613270 1.608600 5.136010
6.015480 2.313720 4.998780
7.737140 3.134460 3.979630
8.540900 1.010490 4.775450
4.462430 4.745150 1.552440
5.385120 4.725120 2.339580
3.791660 3.777260 3.451340
2.947190 4.004210 2.513230
3.548140 4.444280 1.675340
5.238840 4.007150 3.517210
4.541100 -5.691300 1.499680
5.568590 -5.686360 2.334640
5.363570 -4.564750 3.431410
3.716220 -4.239400 3.038990
3.558130 -5.167550 1.659710
4.466110 -3.796970 3.765740
6.015480 -5.342050 3.047650
6.015480 -4.280100 4.092960
6.602810 -6.070240 2.718930
7.547820 -5.917610 3.589410
7.543310 -4.771250 4.616480
6.616700 -3.877110 4.716420
-5.482660 -3.016610 -2.694980
-7.007680 -3.013450 -2.694350
-6.247220 -3.213110 -2.170160
10.464400 1.739250 -3.465790
11.111900 0.512486 -3.471330
12.186800 0.731902 -2.732490
-13.212700 4.119750 1.501270
-11.612200 4.507020 1.956500
-12.795900 4.591430 0.465573
-11.555300 5.029120 0.435964
-10.796600 5.009940 1.489310
-12.350900 3.950300 2.417530
-9.952990 5.744840 -0.310992
-9.201680 5.999550 0.413317
-11.010900 5.302510 -0.630997
-9.525050 5.336910 1.750270
-3.181550 -0.827194 4.948410
-3.181550 -1.921350 3.933020
-1.648710 -0.840956 4.961200
-3.962570 -1.314670 4.383550
-2.413970 -0.291216 5.240500
6.786550 -6.948440 1.498220
8.917210 -7.359850 2.673320
7.904750 -7.522050 1.481720
8.314740 -7.485770 1.991580
8.509770 -6.719130 3.281380
5.156550 -6.289060 0.464063
7.445540 -7.418990 0.476498
5.832030 -6.342660 1.702100
6.815400 -6.935110 -0.592671
-8.565930 4.260200 3.653570
-8.768040 3.173260 4.777140
-10.076600 2.897700 4.525660
-9.998560 3.873430 3.346310
-7.814780 3.866700 4.384650
-9.312900 2.427990 5.104980
-7.614110 4.889800 3.335120
-7.013640 5.553140 2.928770
-6.269090 5.108680 3.533570
-7.013640 3.423630 5.014180
-6.354810 4.081880 4.610070
-5.480810 5.728210 3.091470
-3.916080 5.903960 3.385120
-3.797150 4.953850 4.204120
-5.480810 4.703170 4.171100
-4.742290 6.327100 2.748960
-3.181550 5.527700 3.921270
-4.698130 4.251200 4.750880
2.949810 -2.184220 -5.278480
4.457410 -2.397720 -5.544470
3.674650 -1.521040 -5.790500
-2.415130 6.892880 -3.242770
-2.415130 5.609490 -4.082280
-0.864183 4.100700 -4.980510
-0.174467 4.868050 -4.506530
-13.227200 0.740489 -3.734230
-12.378600 -0.955418 -4.136440
-17.023300 0.716168 0.465573
-17.558000 -1.496990 0.477005
-16.854700 0.658948 -0.577146
-17.386200 -0.523681 -0.401624
-16.878600 0.620420 1.386040
-17.292200 -0.377168 1.231160
-17.578100 -1.470500 -0.550573
-17.262400 -1.569330 1.659600
-17.337500 -2.349240 -0.550573
-16.652900 -3.194640 -0.550573
-16.151400 -3.318990 0.510117
-16.533500 -2.749900 1.691550
-9.313270 -0.483237 4.926740
-9.312900 -1.901370 3.914460
-7.780060 -1.873510 3.888570
-7.774930 -0.479999 4.927200
-10.082700 -1.285970 4.395040
-8.536340 -2.361620 3.279870
-7.011200 -1.269640 4.362160
-8.546480 0.052640 5.146840
-11.557800 -1.320950 4.324790
-10.079300 0.071609 5.129210
-10.859800 0.696353 5.146080
-11.729800 0.719542 4.999310
-12.358300 -0.489276 4.640460
-10.845700 -1.915610 3.927700
-13.721700 1.572080 4.057900
-14.540200 0.498986 4.145820
-13.796500 -0.338670 4.454120
-13.145000 2.244380 3.918180
-12.385900 1.825920 4.556210
-6.245140 -0.485456 4.954550
-4.714390 -1.825890 3.844300
-4.714390 -0.745688 4.872660
-5.299030 -0.201133 5.141690
11.522600 -0.278467 3.595230
12.999000 -2.587820 3.651120
12.151000 -2.584870 4.470550
11.326400 -1.437850 4.432330
11.380000 -7.099940 3.559910
12.146800 -7.436200 2.961660
12.747900 -7.567620 2.286870
13.657900 -6.924700 2.484090
13.630900 -5.800470 3.479630
12.621400 -5.661490 4.401160
12.146800 -6.509690 4.132840
-9.359060 -3.541260 1.445670
-8.556960 -3.649460 0.465830
-7.013390 -3.590380 0.468812
-8.546480 -3.212170 2.084280
-7.780430 -3.534340 -0.558252
-7.016390 -3.327110 -1.605500
-5.481000 -3.375230 -1.603330
-4.642850 -3.612830 -0.552072
-5.479990 -3.538880 0.472703
-10.079600 -3.285560 -1.470840
-8.554200 -3.313230 -1.474840
-9.433750 -3.591420 -0.512132
-10.845700 -3.099600 -2.064660
-10.078600 -2.734860 -2.666890
-8.614370 -2.871930 -2.630150
-10.853600 -2.933000 2.578870
-9.318710 -2.957250 2.588080
-11.630200 -2.347620 3.270530
-10.079300 -3.250270 2.119690
13.887900 -4.750510 3.260560
13.559600 -3.559800 3.399470
13.315700 -4.750510 4.047640
12.717500 -3.821770 4.422300
14.363600 -4.750510 2.497870
12.357600 -4.725350 4.810190
-13.405200 4.200490 -0.630129
-12.690700 4.148960 -1.724740
-11.466700 4.830580 -1.505940
-14.975400 3.178130 0.605040
-13.964200 4.056640 0.455286
-15.222700 2.763350 -0.377401
-14.592900 2.852200 -1.514100
-13.776900 3.615700 -1.391490
8.470780 -5.649880 4.358240
10.614000 -6.567700 4.186760
10.614000 -5.407070 5.140370
9.848140 -4.662760 5.419700
9.081160 -5.240800 4.985840
9.081160 -6.373250 4.006040
9.824160 -6.984950 3.524890
11.370700 -6.052940 4.706930
-9.889140 4.644550 2.336470
-11.612200 3.570410 3.118310
-9.312900 4.390670 2.864510
-11.027100 3.358300 3.696860
-1.561850 4.195070 4.815480
-1.483840 5.513550 3.689530
-0.052710 4.123550 4.559840
-2.412480 4.894600 4.380420
-0.397653 4.943520 3.347350
-0.882290 3.566960 5.147390
-7.182190 6.624970 1.669170
-7.580170 5.948810 2.266050
-6.197030 7.068030 1.342950
-5.480810 6.811890 2.066360
-4.776490 7.429110 1.549420
-3.181550 7.702610 1.878040
-3.181550 6.704460 2.982660
-3.772380 7.922480 1.299050
-2.419400 7.113470 2.421640
-15.226500 2.769790 1.313530
-14.535600 2.829510 2.420340
-13.911400 3.480020 2.018150
-12.396300 3.009210 3.484540
-11.017600 2.007500 4.942080
-5.341340 7.904350 -0.303159
-6.957010 7.212400 0.429532
-5.633070 7.689850 0.648159
-16.225800 0.736118 2.490210
-16.537200 -1.623140 2.784090
-15.478900 -1.459530 3.557630
-16.845000 -0.520795 2.388430
-15.378400 0.669305 3.480880
-15.070300 -0.377168 4.034320
-15.460300 1.816570 2.506640
-13.687100 2.628650 3.258530
0.604181 4.379250 3.478780
1.391220 4.332950 2.473920
2.183390 3.346950 4.942920
2.771460 3.538720 4.341450
1.335560 3.767350 4.357920
2.189510 4.678270 0.344384
2.949270 4.749590 -0.542097
4.491910 4.844640 -0.572795
5.252750 5.084180 0.469985
2.949810 4.559150 0.988804
-3.813710 -3.585440 0.407900
14.921800 -2.686380 0.332638
14.778300 -3.657170 1.246890
14.274100 -3.854210 2.333900
14.658800 -1.462840 0.496561
15.032200 -3.657170 0.465573
13.844700 -2.571370 2.569310
-15.850800 2.389520 0.465573
-16.479800 1.580790 0.465573
-16.626800 -2.064130 2.497870
-15.481100 -3.315030 1.400940
-14.677800 -3.180620 2.054950
-14.677800 -2.218950 3.193480
-13.906100 -2.788030 2.720500
-13.145000 -3.301570 2.167360
-14.843200 -3.820900 0.533619
-13.135200 -4.108810 0.445818
-12.379600 -3.771860 1.545730
-13.900000 -1.690360 3.715760
-12.454600 -2.839490 2.654020
-12.550600 -1.878800 3.665390
-12.956500 -1.305310 4.126710
10.614000 -7.621260 -2.202500
11.910000 -6.656020 -3.339340
12.146800 -7.581110 -2.165190
11.388800 -7.944880 -1.460920
9.785180 -7.187430 -2.747850
12.915600 -6.956190 -2.611380
3.112080 -5.340580 -0.297989
3.797540 -5.616630 0.482259
-1.451280 6.303210 2.628510
7.541680 -2.547110 -5.636630
6.811570 -5.587360 -3.458320
5.245100 -1.465440 -5.908220
6.736550 -1.468390 -5.582370
9.266780 -6.493430 -3.432690
8.425820 -6.746440 -2.603460
7.375440 -6.303060 -2.780450
-12.565900 -3.193790 -2.400570
-11.669400 -3.401500 -1.536340
-12.382800 -4.044730 -0.519871
-11.522100 -1.675050 -3.870730
-11.544500 -2.813600 -2.750920
-10.845700 -2.248550 -3.305980
-17.003500 -0.355720 -1.544930
-17.300600 -1.470500 -1.338840
-10.138100 2.960070 -3.748320
-13.735700 1.574080 -3.147180
-12.693900 3.066290 -2.725840
-13.145000 2.308580 -3.046710
-8.618350 1.888310 -4.720420
-9.312900 2.476690 -4.219100
-10.845700 3.526800 -3.162780
-11.613200 3.999580 -2.585610
-2.415130 7.849310 -2.099380
-3.110840 8.207650 -1.519030
-3.947980 8.370000 -0.551508
-1.972120 7.908160 -1.566720
0.670932 5.166570 -3.665540
0.712014 5.407330 -1.566920
1.333330 5.045760 -2.615280
-0.365839 6.413310 -0.550573
0.285846 5.662580 -0.550573
-1.459790 7.600260 -0.550513
13.112000 1.809500 -1.320150
13.440200 1.604930 0.255395
12.718300 1.666620 1.355130
11.924300 2.761680 1.336090
13.223600 0.953795 -1.761480
13.945100 0.890581 -0.628737
8.275380 3.941140 -0.548310
11.159500 2.596940 2.235890
10.614000 3.518210 2.053650
7.548320 4.483190 0.012942
8.320520 3.894530 3.316350
11.540700 0.946780 2.924720
11.823700 1.586750 2.315810
10.614400 -0.373122 4.518680
9.710430 -0.552094 5.201890
9.081160 0.199140 5.065780
-4.731870 1.710330 -5.311740
-3.186540 1.851250 -5.424490
-2.249890 2.713530 -5.236280
-1.648710 3.414380 -5.090580
-9.291300 5.049360 -2.539230
-10.301200 4.273460 -2.826390
-7.026260 0.560503 -5.242590
-7.965840 0.972310 -5.099520
-5.487450 0.719189 -5.380790
6.811570 1.888490 -4.716740
6.803870 0.635353 -5.377860
7.580810 -0.348693 -5.238720
1.561470 -4.593260 -1.529430
0.501276 -3.011900 1.700240
-3.238260 -3.797380 -0.629425
-2.414030 -3.655170 -1.563200
-3.868330 -2.279830 3.331870
12.941500 -2.544640 -2.669080
13.434800 -1.598450 -2.375980
12.869100 -0.330436 -2.484950
1.416970 -2.043070 -5.147300
2.165000 -1.475620 -5.638840
-10.103400 5.405140 -1.602410
-7.935680 6.648340 0.691886
-16.306700 0.784691 -1.630960
-14.512200 1.706730 -2.497830
-15.415400 1.839300 -1.615810
-9.152510 -2.188300 -3.462640
-6.259760 -0.237855 -5.195010
-7.780060 -3.169190 -2.129340
-3.090850 -0.353915 -5.590340
-3.852560 0.717317 -5.567410
-2.415130 -1.098730 -5.285780
-4.135400 -3.043020 -2.779710
-4.714390 -3.206820 -2.164310
14.912400 -4.750510 -0.800677
12.816100 -7.757490 -1.441760
12.280000 -8.134390 -0.607103
12.931900 -8.044440 0.460905
14.591300 -4.750510 -1.566720
14.990000 -4.762630 0.482073
14.277600 -6.803370 1.332050
14.645200 -5.843840 1.481720
14.759700 -4.747110 1.559770
13.345800 -7.554260 1.481720
13.947400 0.451252 0.465573
14.391400 -0.392240 -0.550231
-1.636600 -0.456964 -5.705870
1.418650 -0.356338 -5.910690
-0.877977 0.709318 -5.835730
0.654797 0.707848 -5.943590
-3.184500 -3.208580 -2.467530
2.183780 -0.459611 5.261010
-0.101125 0.726826 5.552390
1.371150 0.728798 5.580580
-0.884268 -0.278255 5.211590
6.781900 -6.398180 -2.081920
7.549130 -6.942190 -1.572740
5.549390 -3.502420 4.407860
5.249060 -2.068830 5.086250
4.444100 -1.354060 5.159050
5.833590 -2.788160 4.979800
3.709610 -0.425594 5.247280
6.722010 4.885960 0.491685
6.822270 5.031300 2.435810
5.860930 5.212300 1.536480
7.548320 4.571960 3.033010
3.734490 4.710550 -1.578060
4.113770 4.563290 -2.582870
5.613640 3.422930 -3.599010
4.582790 4.185750 -3.642230
5.757840 2.749400 -4.464160
14.529100 -3.672380 -1.590430
14.224200 -2.563840 -1.814190
5.233090 3.076500 4.692220
6.870730 4.055010 3.569360
6.015480 3.555360 4.120470
6.037580 0.753708 5.571390
6.781370 -0.384945 5.788620
8.335230 -0.316675 5.603590
5.257500 1.880800 5.294480
6.015480 4.551120 3.013640
4.482640 3.548960 4.114520
3.801280 3.230790 4.730250
2.178280 4.413520 1.441180
8.476010 -4.562020 5.157300
7.590040 -3.483700 5.327870
6.888250 -2.538540 5.419420
-13.322700 3.360710 2.687830
-8.489470 6.100260 1.432090
-8.547760 5.122550 2.490300
-3.960880 -0.287663 5.206810
-3.179070 0.609227 5.646320
-1.651070 0.663094 5.587760
8.292150 -7.767430 0.464015
9.127450 -7.913650 1.429160
9.826840 -7.662750 2.410060
10.614000 -7.473590 2.996400
8.125320 -7.480320 -0.804222
-8.420820 1.824170 5.458290
-7.807480 2.810350 5.212350
-10.102400 1.706210 5.229720
-6.272160 2.824350 5.426630
-7.098300 1.782230 5.618770
-5.480810 3.564700 5.145290
-3.276390 4.197370 4.799980
-3.947970 3.605000 5.182750
-4.755920 2.913690 5.560030
2.947610 -0.366218 -5.968790
4.478540 -0.386974 -5.889020
-0.891727 2.956360 -5.266550
-0.115871 3.554120 -5.220460
0.747627 4.218730 -4.946210
1.416970 4.669860 -4.225140
-16.164900 1.784140 -0.609366
-9.315170 0.685308 5.325850
-7.013640 0.008019 5.188310
-7.782510 0.678084 5.350360
-14.677800 -0.927098 4.025120
-6.272230 0.703862 5.558870
-4.707400 0.644814 5.620200
11.822400 -3.657170 5.116170
11.270900 -2.744740 5.232920
10.513800 -1.619810 5.274730
11.388000 -7.730220 2.424280
14.309600 -5.687450 2.364710
12.144400 -8.025890 1.447550
-10.772400 -3.696110 1.505890
-10.092600 -3.905280 0.463198
-3.950070 -3.406410 -1.594960
-10.863700 -3.789760 -0.656843
-11.612200 -3.284310 2.151330
11.331800 -4.685180 5.360100
-13.145000 3.476190 -2.099600
-10.845700 4.671790 -2.194640
-13.734600 2.670920 -2.375990
8.935620 -3.695910 5.678450
10.724600 -3.589790 5.660910
-1.644140 2.795950 5.471800
-2.415130 3.573990 5.153930
-0.733102 5.543830 2.722320
-0.168255 2.883690 5.413970
0.650548 3.450930 5.039550
0.306861 4.817490 2.364580
-4.749180 8.004050 0.363146
-1.634890 7.123150 1.490480
-2.594640 7.893810 1.277610
-3.195990 8.417330 0.506288
1.249110 4.613880 1.262220
2.962560 2.850740 5.330500
1.499510 2.765650 5.456860
2.252450 1.905620 5.647710
0.675852 5.120940 0.449360
1.329430 4.976710 -0.604472
2.037480 4.863330 -1.565310
14.814900 -2.396660 -0.682239
14.667300 -1.470500 -0.550573
14.924100 -3.646920 -0.464533
-11.620300 -4.101620 0.451989
9.833390 -7.755250 -1.624300
10.541700 -8.185140 -0.642242
8.901360 -7.425930 -1.782580
-0.816115 6.241110 1.438850
6.014210 -0.377690 -5.630580
-2.354120 8.430720 -0.549697
2.202750 4.711560 -3.492040
2.958900 4.743980 -2.600170
-0.287435 6.063890 0.326162
-1.137200 7.106600 0.259532
-1.968760 7.912950 0.465573
13.817400 -0.458448 -1.677950
9.250260 -1.410680 5.724560
-2.483390 0.815279 -5.745580
-1.657930 1.697350 -5.566370
5.905630 1.669410 -5.355460
5.187660 0.697269 -5.603200
14.300400 -1.620990 -1.445080
11.380000 -8.238500 0.462033
2.179270 0.709794 -6.012720
-0.092128 1.770690 -5.608330
1.420040 1.787250 -5.868240
2.943300 0.594077 5.627270
0.658219 1.813430 5.494590
-0.883910 1.806810 5.692720
6.009110 -1.527310 5.582480
5.146920 -0.415236 5.623440
4.495050 0.732511 5.645620
3.534280 4.589050 -3.375110
2.949810 4.454040 -4.024550
5.067600 3.488280 -4.383700
4.482640 3.347740 -5.028650
3.746160 4.010020 -4.682250
5.058700 2.661760 -5.154860
4.482640 2.512270 5.183300
7.553930 -1.467040 5.832830
3.761040 1.881160 5.591370
8.325200 -2.547440 5.858820
-3.948480 1.805700 5.816060
-2.417960 1.805530 5.720830
9.698870 -8.196210 0.463369
9.190720 -7.957780 -0.511349
10.549900 -8.061750 1.519540
-5.477530 1.806940 5.768780
-3.250970 2.891030 5.536900
3.709580 0.707223 -5.805650
0.716877 2.833320 -5.454920
1.416970 3.609610 -5.272030
2.163940 4.193510 -4.679180
10.023300 -2.480080 5.729990
0.053870 5.292270 1.496150
4.359700 1.753360 -5.552860
2.944000 1.793270 -5.843740
2.183590 2.906270 -5.635430
3.640990 2.734260 -5.477680
2.949810 3.511750 -5.181080
3 0 98 97
3 0 104 98
3 0 101 104
3 0 99 102
3 0 97 99
3 101 0 100
3 100 0 102
3 1 105 101
3 1 110 105
3 1 107 110
3 1 108 107
3 1 103 106
3 1 101 103
3 1 109 108
3 1 106 109
3 2 117 111
3 2 115 116
3 2 116 117
3 2 111 112
3 2 113 115
3 2 112 113
3 118 3 121
3 3 114 121
3 3 113 114
3 3 120 113
3 3 122 120
3 3 119 122
3 119 3 118
3 4 125 123
3 4 112 111
3 4 111 125
3 4 121 112
3 4 124 121
3 4 123 124
3 127 5 128
3 5 129 128
3 5 130 129
3 5 126 130
3 5 131 126
3 131 5 127
3 132 136 6
3 134 6 135
3 6 138 135
3 138 6 136
3 132 6 137
3 6 133 137
3 133 6 134
3 7 141 145
3 7 142 141
3 139 142 7
3 7 143 139
3 7 145 140
3 7 140 143
3 8 146 152
3 8 147 151
3 8 152 147
3 8 149 146
3 8 151 150
3 8 150 149
3 9 155 156
3 9 154 152
3 9 156 154
3 9 153 155
3 9 152 146
3 9 146 153
3 10 157 159
3 10 159 158
3 10 158 162
3 10 162 161
3 10 161 160
3 10 160 157
3 11 168 132
3 11 163 168
3 11 165 163
3 11 132 137
3 11 164 165
3 11 166 164
3 11 167 166
3 11 137 167
3 167 12 166
3 12 164 166
3 164 12 169
3 171 12 173
3 173 12 167
3 169 12 170
3 170 12 171
3 13 174 179
3 13 175 174
3 13 163 165
3 13 179 163
3 13 177 175
3 13 176 177
3 13 178 176
3 13 165 178
3 165 14 178
3 14 176 178
3 169 14 164
3 164 14 165
3 14 180 176
3 180 14 182
3 14 181 182
3 181 14 169
3 15 183 188
3 15 187 184
3 15 188 187
3 15 185 183
3 15 186 185
3 15 184 186
3 16 190 193
3 16 193 194
3 16 194 191
3 16 191 192
3 190 16 189
3 189 16 192
3 17 198 195
3 196 197 17
3 17 197 198
3 17 195 194
3 17 194 193
3 17 193 196
3 200 18 205
3 18 191 203
3 204 18 203
3 18 204 205
3 18 200 201
3 191 18 202
3 18 201 202
3 19 210 206
3 19 207 210
3 19 206 209
3 19 205 207
3 19 209 205
3 20 216 213
3 20 214 216
3 20 215 214
3 20 211 215
3 20 212 211
3 20 213 212
3 21 217 186
3 218 21 219
3 21 211 219
3 211 21 184
3 21 186 184
3 21 218 217
3 108 22 107
3 22 221 107
3 22 223 221
3 22 220 223
3 22 222 220
3 22 108 222
3 228 23 227
3 23 230 231
3 230 23 226
3 227 23 231
3 225 23 224
3 23 228 224
3 226 23 229
3 229 23 225
3 24 232 238
3 24 236 235
3 24 238 236
3 24 233 232
3 24 179 233
3 24 235 234
3 24 234 179
3 240 25 124
3 124 25 118
3 239 118 25
3 239 25 241
3 25 242 241
3 242 25 240
3 26 246 129
3 26 247 246
3 247 26 245
3 245 26 248
3 248 26 243
3 243 26 244
3 26 129 244
3 243 27 248
3 27 251 248
3 27 254 251
3 27 250 254
3 27 253 250
3 27 249 253
3 249 27 243
3 28 255 253
3 28 259 255
3 28 258 259
3 28 261 258
3 28 260 256
3 28 253 260
3 28 257 261
3 28 256 257
3 29 265 266
3 29 267 264
3 265 29 264
3 263 29 266
3 267 29 262
3 262 29 263
3 30 272 271
3 268 269 30
3 30 269 273
3 30 273 272
3 30 271 270
3 30 270 268
3 274 275 31
3 274 31 277
3 277 31 276
3 275 279 276
3 276 31 275
3 32 285 284
3 32 283 285
3 32 282 283
3 32 280 282
3 32 281 278
3 32 284 281
3 32 274 280
3 32 278 274
3 33 288 289
3 33 289 290
3 33 292 293
3 33 293 288
3 33 290 286
3 33 286 291
3 33 291 287
3 33 287 292
3 34 300 294
3 34 297 298
3 34 298 300
3 34 295 299
3 34 294 295
3 34 296 297
3 34 299 296
3 35 302 231
3 35 295 294
3 35 299 295
3 35 294 302
3 35 230 226
3 35 231 230
3 35 301 299
3 35 226 301
3 36 304 283
3 36 227 303
3 36 303 304
3 36 282 280
3 36 283 282
3 36 228 227
3 36 280 228
3 307 37 306
3 292 37 307
3 287 37 292
3 37 287 199
3 37 199 197
3 37 197 305
3 306 37 305
3 38 290 309
3 38 309 210
3 38 291 286
3 38 286 290
3 38 210 207
3 38 310 291
3 38 207 310
3 39 315 316
3 39 317 314
3 39 314 315
3 39 316 311
3 39 311 312
3 39 312 313
3 39 313 317
3 322 40 319
3 320 40 322
3 156 40 320
3 319 40 321
3 155 40 156
3 40 155 321
3 41 327 330
3 327 41 323
3 329 41 326
3 326 41 330
3 41 328 323
3 324 41 325
3 41 329 325
3 41 324 328
3 42 325 329
3 325 42 324
3 335 42 333
3 333 42 329
3 42 334 324
3 334 42 331
3 331 42 332
3 42 335 332
3 43 338 153
3 43 333 338
3 43 148 149
3 43 153 148
3 43 335 333
3 336 43 149
3 43 336 335
3 341 44 342
3 44 339 342
3 339 44 343
3 343 44 340
3 344 44 341
3 340 44 344
3 345 339 222
3 345 342 339
3 342 345 213
3 213 345 212
3 212 345 346
3 345 222 346
3 45 347 350
3 45 350 349
3 45 349 353
3 45 353 159
3 45 159 348
3 45 348 352
3 45 352 347
3 356 46 357
3 46 359 355
3 46 356 359
3 46 354 358
3 46 358 357
3 46 355 354
3 47 365 363
3 47 363 196
3 47 361 362
3 47 362 365
3 47 196 364
3 47 364 360
3 47 360 361
3 48 371 367
3 48 367 362
3 48 369 370
3 48 370 371
3 48 362 366
3 48 366 368
3 48 368 369
3 49 373 254
3 49 259 372
3 373 49 372
3 49 250 253
3 49 254 250
3 49 255 259
3 49 253 255
3 50 150 377
3 50 149 150
3 50 336 149
3 336 50 375
3 50 376 375
3 50 377 376
3 51 378 383
3 51 383 379
3 51 379 382
3 378 51 380
3 51 382 381
3 51 381 380
3 381 382 52
3 52 387 385
3 52 382 387
3 52 384 386
3 52 386 381
3 385 384 52
3 53 392 388
3 53 388 391
3 390 53 290
3 53 390 392
3 53 391 389
3 53 389 210
3 53 210 309
3 290 53 309
3 368 54 369
3 54 394 397
3 369 54 397
3 393 54 368
3 54 395 396
3 394 54 396
3 395 54 393
3 398 55 400
3 393 55 399
3 400 55 393
3 298 55 398
3 55 401 399
3 55 298 401
3 56 405 404
3 403 56 404
3 403 402 56
3 402 403 406
3 56 402 405
3 408 406 57
3 408 402 406
3 57 412 410
3 408 57 410
3 57 406 412
3 58 410 416
3 58 416 419
3 58 419 415
3 58 415 414
3 58 417 413
3 58 413 410
3 58 414 417
3 59 229 225
3 59 226 229
3 59 97 226
3 59 420 422
3 59 225 420
3 97 59 421
3 59 422 421
3 60 133 134
3 60 137 133
3 60 423 143
3 60 134 423
3 60 167 137
3 60 173 167
3 60 424 173
3 60 143 424
3 143 61 424
3 61 173 424
3 173 61 171
3 61 144 426
3 144 61 143
3 171 61 425
3 61 426 425
3 119 62 428
3 62 246 428
3 62 128 246
3 128 62 427
3 62 239 427
3 119 239 62
3 63 434 433
3 430 434 63
3 434 430 436
3 63 433 429
3 63 431 432
3 63 432 430
3 63 429 431
3 64 436 430
3 64 439 440
3 64 440 436
3 64 430 437
3 64 438 439
3 64 437 438
3 65 441 445
3 65 447 444
3 441 65 444
3 65 445 442
3 65 442 446
3 65 446 443
3 65 443 447
3 66 451 452
3 66 452 453
3 449 66 453
3 445 66 449
3 66 445 441
3 66 441 450
3 66 450 451
3 67 457 453
3 67 453 452
3 67 452 459
3 67 455 456
3 67 456 457
3 67 459 455
3 68 460 447
3 68 391 462
3 68 462 463
3 460 68 463
3 68 447 318
3 68 318 314
3 68 314 461
3 68 461 391
3 69 464 467
3 69 467 466
3 69 466 465
3 272 69 465
3 273 69 272
3 464 69 273
3 70 473 474
3 468 70 474
3 70 472 473
3 469 70 468
3 70 469 470
3 70 471 472
3 70 470 471
3 478 71 316
3 71 478 475
3 71 312 311
3 316 71 311
3 71 475 476
3 71 477 312
3 71 476 477
3 72 477 479
3 72 482 483
3 72 483 477
3 72 479 480
3 72 481 482
3 72 480 481
3 485 486 484
3 73 484 488
3 484 73 485
3 485 73 489
3 73 488 489
3 74 445 454
3 74 454 492
3 74 446 442
3 74 442 445
3 74 492 490
3 74 491 446
3 491 74 490
3 472 496 473
3 494 496 472
3 495 496 494
3 495 497 496
3 496 497 499
3 496 499 473
3 380 75 500
3 386 75 381
3 75 380 381
3 500 75 501
3 502 75 386
3 75 502 501
3 76 505 503
3 500 76 504
3 504 76 503
3 76 506 505
3 76 507 506
3 507 76 500
3 77 511 512
3 77 512 508
3 77 515 510
3 77 510 511
3 77 508 513
3 77 513 514
3 77 514 509
3 77 509 515
3 78 383 517
3 78 517 519
3 78 405 516
3 78 519 405
3 78 382 379
3 78 379 383
3 78 516 382
3 79 521 523
3 520 79 523
3 520 522 79
3 524 79 522
3 79 524 521
3 80 527 409
3 410 80 409
3 413 80 410
3 417 80 413
3 80 528 526
3 80 526 527
3 529 80 417
3 80 529 528
3 414 81 417
3 81 414 532
3 81 532 534
3 417 81 530
3 81 534 531
3 81 531 533
3 530 81 533
3 82 535 536
3 82 536 537
3 378 82 537
3 82 503 535
3 82 504 503
3 82 378 504
3 539 83 459
3 83 539 404
3 459 83 538
3 83 404 519
3 538 83 519
3 84 236 541
3 84 542 540
3 84 541 542
3 84 235 236
3 84 540 136
3 84 136 235
3 548 85 545
3 85 548 547
3 85 546 544
3 545 85 544
3 543 85 547
3 546 85 543
3 86 547 456
3 86 456 455
3 86 455 550
3 547 86 549
3 86 550 536
3 549 86 536
3 87 551 555
3 87 554 356
3 87 555 554
3 551 87 552
3 357 87 356
3 552 87 357
3 88 556 560
3 358 88 560
3 88 354 559
3 88 358 354
3 88 557 556
3 88 559 558
3 88 558 557
3 313 89 317
3 89 313 312
3 89 209 208
3 317 89 208
3 89 312 483
3 89 561 209
3 89 483 561
3 90 271 567
3 90 567 564
3 90 564 563
3 90 563 562
3 90 565 271
3 90 562 565
3 543 91 433
3 91 543 549
3 535 91 549
3 91 569 433
3 91 535 568
3 91 568 569
3 92 545 544
3 92 544 570
3 92 574 573
3 92 573 545
3 92 570 440
3 92 440 571
3 92 571 572
3 92 572 574
3 93 574 572
3 93 572 571
3 93 578 575
3 93 575 574
3 93 571 576
3 93 577 578
3 93 576 577
3 579 581 582
3 579 574 94
3 581 580 492
3 581 94 580
3 581 579 94
3 94 574 580
3 95 583 587
3 95 586 583
3 95 585 586
3 95 588 585
3 95 587 223
3 95 584 588
3 584 95 223
3 590 589 300
3 589 189 302
3 294 589 302
3 589 294 300
3 96 414 418
3 96 418 523
3 96 523 521
3 96 534 532
3 96 532 414
3 591 96 521
3 96 591 534
3 97 301 226
3 97 98 301
3 97 421 99
3 98 104 301
3 102 99 421
3 100 103 101
3 100 106 103
3 106 100 592
3 102 592 100
3 101 593 104
3 101 105 593
3 102 595 592
3 102 421 594
3 102 594 595
3 104 299 301
3 104 296 299
3 593 296 104
3 593 105 110
3 106 218 109
3 218 106 592
3 107 221 596
3 110 107 596
3 222 108 346
3 108 109 346
3 109 219 346
3 109 218 219
3 110 598 593
3 110 597 598
3 110 596 597
3 125 111 438
3 438 111 117
3 112 114 113
3 112 121 114
3 115 113 599
3 113 120 599
3 117 116 576
3 115 600 601
3 115 601 116
3 115 599 600
3 116 601 577
3 116 577 576
3 117 439 438
3 117 576 439
3 118 121 124
3 118 239 119
3 119 602 122
3 119 428 602
3 599 120 122
3 599 122 603
3 603 122 602
3 240 123 605
3 605 123 606
3 606 123 125
3 124 123 240
3 125 437 606
3 125 438 437
3 128 427 127
3 129 246 128
3 130 126 607
3 126 131 607
3 127 610 609
3 127 608 610
3 127 427 608
3 127 609 131
3 244 129 130
3 611 244 130
3 611 130 612
3 612 130 607
3 614 131 609
3 607 131 613
3 613 131 614
3 132 237 136
3 132 234 237
3 132 168 234
3 134 135 616
3 134 615 139
3 134 616 615
3 134 139 423
3 616 138 617
3 616 135 138
3 136 540 138
3 136 237 235
3 237 234 235
3 617 138 540
3 139 615 618
3 139 618 142
3 423 139 143
3 619 140 145
3 143 140 144
3 140 426 144
3 426 140 619
3 620 145 141
3 145 620 621
3 619 145 621
3 141 142 622
3 620 141 623
3 623 141 622
3 624 142 618
3 622 142 624
3 146 148 153
3 148 146 149
3 150 151 625
3 151 147 626
3 147 152 628
3 147 628 627
3 147 627 626
3 152 154 628
3 150 629 377
3 150 625 629
3 151 626 630
3 625 630 629
3 625 151 630
3 153 631 155
3 153 338 631
3 633 154 156
3 154 633 632
3 154 632 628
3 321 155 631
3 633 156 160
3 632 633 160
3 156 320 160
3 157 635 352
3 348 157 352
3 157 348 159
3 320 157 160
3 157 320 635
3 162 636 161
3 161 637 632
3 161 636 637
3 160 161 632
3 640 158 353
3 158 640 639
3 158 639 638
3 353 158 159
3 162 158 638
3 162 638 464
3 162 464 636
3 168 163 234
3 163 179 234
3 169 641 181
3 169 172 641
3 169 170 172
3 170 642 172
3 170 643 642
3 170 171 643
3 171 644 643
3 171 425 644
3 172 642 641
3 174 175 645
3 179 174 645
3 175 646 645
3 646 175 607
3 607 175 177
3 177 176 611
3 611 176 180
3 177 612 607
3 177 611 612
3 179 645 233
3 180 648 611
3 180 647 648
3 180 182 647
3 181 641 182
3 641 649 182
3 182 649 647
3 183 650 331
3 183 331 188
3 650 183 185
3 185 652 651
3 185 186 652
3 186 217 652
3 211 184 215
3 215 184 187
3 187 375 376
3 215 187 376
3 187 188 375
3 185 651 650
3 188 332 335
3 188 331 332
3 188 337 375
3 188 335 337
3 192 191 202
3 192 202 303
3 192 303 653
3 192 653 189
3 189 589 190
3 189 653 302
3 190 590 364
3 190 364 193
3 190 589 590
3 203 191 654
3 191 194 654
3 193 364 196
3 654 194 195
3 291 195 198
3 310 195 291
3 195 310 654
3 196 363 197
3 197 199 198
3 305 197 365
3 365 197 363
3 198 199 287
3 291 198 287
3 200 209 561
3 200 205 209
3 200 561 655
3 200 655 201
3 201 655 656
3 201 304 202
3 201 656 304
3 202 304 303
3 203 654 204
3 204 207 205
3 204 654 310
3 204 310 207
3 206 657 317
3 206 210 657
3 206 317 208
3 206 208 209
3 210 389 657
3 219 211 212
3 346 219 212
3 342 213 658
3 658 213 216
3 216 214 660
3 216 660 659
3 658 216 659
3 377 214 376
3 214 215 376
3 214 377 660
3 217 595 652
3 595 217 592
3 592 217 218
3 223 220 584
3 584 220 343
3 220 339 343
3 220 222 339
3 596 223 587
3 596 221 223
3 228 277 224
3 224 277 225
3 225 661 662
3 225 277 661
3 225 662 420
3 227 653 303
3 227 231 653
3 228 280 277
3 231 302 653
3 384 232 663
3 238 232 384
3 663 232 645
3 232 233 645
3 664 236 238
3 236 664 541
3 238 384 385
3 238 385 664
3 239 241 427
3 240 605 665
3 240 665 242
3 427 241 608
3 241 666 608
3 241 242 666
3 667 242 665
3 666 242 667
3 243 252 249
3 243 648 252
3 243 244 648
3 244 611 648
3 245 604 602
3 245 488 604
3 245 668 488
3 245 602 247
3 245 248 668
3 247 602 246
3 428 246 602
3 248 251 668
3 249 252 647
3 253 249 669
3 647 669 249
3 668 254 489
3 668 251 254
3 252 648 647
3 253 669 260
3 489 254 373
3 256 669 649
3 256 260 669
3 256 671 257
3 256 672 671
3 256 649 672
3 261 257 671
3 261 284 258
3 258 284 259
3 674 259 284
3 372 259 674
3 261 281 284
3 261 278 281
3 261 673 278
3 261 671 673
3 266 679 678
3 677 266 678
3 266 677 263
3 262 676 267
3 262 680 676
3 262 340 344
3 262 263 340
3 262 344 680
3 263 677 588
3 263 588 340
3 264 682 265
3 264 681 684
3 264 684 683
3 264 683 682
3 264 267 681
3 265 685 679
3 265 682 685
3 266 265 679
3 267 676 681
3 270 686 268
3 271 565 270
3 268 627 269
3 268 626 627
3 268 686 626
3 269 637 636
3 273 269 636
3 269 627 637
3 686 630 626
3 270 565 687
3 270 687 686
3 686 687 630
3 271 272 567
3 272 465 567
3 273 636 464
3 274 277 280
3 274 278 275
3 688 275 278
3 688 279 275
3 276 661 277
3 661 276 662
3 662 276 689
3 689 276 279
3 278 673 688
3 279 688 690
3 279 691 689
3 279 690 691
3 284 285 692
3 285 283 692
3 283 656 692
3 283 304 656
3 284 692 674
3 293 292 693
3 293 693 288
3 696 288 694
3 288 696 289
3 695 288 693
3 695 694 288
3 290 289 696
3 290 696 390
3 292 307 308
3 292 308 693
3 296 697 297
3 697 296 598
3 296 593 598
3 297 698 401
3 297 401 298
3 698 297 697
3 300 298 398
3 697 598 698
3 300 398 590
3 305 365 306
3 306 701 307
3 306 699 702
3 306 702 700
3 306 700 701
3 306 365 699
3 307 703 308
3 701 703 307
3 308 703 693
3 312 477 483
3 314 318 315
3 314 657 461
3 657 314 317
3 315 447 443
3 315 443 446
3 315 318 447
3 316 315 446
3 316 446 491
3 316 491 478
3 319 706 705
3 319 705 322
3 319 704 706
3 319 321 704
3 320 322 635
3 321 634 704
3 321 631 634
3 322 705 707
3 322 707 635
3 323 558 327
3 708 558 323
3 323 709 708
3 323 328 709
3 324 710 328
3 324 334 710
3 326 330 704
3 326 634 631
3 326 704 634
3 326 631 329
3 558 559 330
3 330 327 558
3 709 328 711
3 711 328 710
3 333 329 631
3 330 559 704
3 331 650 334
3 333 631 338
3 334 712 710
3 712 334 650
3 335 336 337
3 336 375 337
3 340 588 343
3 341 713 344
3 341 714 713
3 341 658 714
3 341 342 658
3 584 343 588
3 680 344 713
3 351 347 715
3 347 351 350
3 717 347 716
3 715 347 717
3 716 347 352
3 719 349 718
3 720 349 719
3 718 349 350
3 353 349 720
3 350 351 721
3 718 350 721
3 351 715 721
3 352 635 716
3 353 720 640
3 706 354 355
3 354 706 559
3 722 355 359
3 355 722 705
3 706 355 705
3 724 356 554
3 723 356 724
3 359 356 723
3 357 725 552
3 357 358 725
3 358 560 725
3 722 716 705
3 722 359 716
3 723 715 359
3 723 724 715
3 359 715 717
3 359 717 716
3 360 400 361
3 360 364 590
3 400 360 398
3 360 590 398
3 366 361 368
3 361 366 362
3 368 361 400
3 362 367 699
3 365 362 699
3 367 371 699
3 368 400 393
3 369 397 508
3 369 508 370
3 370 727 371
3 370 508 726
3 370 726 727
3 371 728 702
3 371 702 699
3 727 728 371
3 372 374 373
3 372 481 374
3 372 675 481
3 372 674 675
3 373 670 489
3 373 480 670
3 373 374 480
3 374 481 480
3 377 629 660
3 378 537 729
3 378 729 383
3 378 380 504
3 380 500 504
3 387 382 516
3 538 383 729
3 517 383 538
3 386 384 663
3 385 730 664
3 385 387 730
3 386 663 502
3 730 387 731
3 387 516 731
3 391 388 732
3 732 392 733
3 388 392 732
3 657 389 391
3 392 696 734
3 390 696 392
3 391 732 462
3 391 461 657
3 734 733 392
3 393 399 395
3 736 396 395
3 396 736 394
3 395 399 735
3 395 735 736
3 394 737 514
3 397 394 514
3 394 736 737
3 513 397 514
3 397 513 508
3 399 739 735
3 399 401 739
3 739 401 698
3 402 731 518
3 402 518 405
3 402 408 731
3 403 404 407
3 403 407 740
3 406 403 741
3 740 741 403
3 404 539 742
3 404 742 407
3 404 405 519
3 518 516 405
3 516 518 731
3 406 741 411
3 412 406 411
3 407 742 740
3 409 408 410
3 408 409 527
3 731 408 527
3 410 412 416
3 411 743 412
3 743 411 741
3 741 744 743
3 412 743 745
3 412 745 419
3 412 419 416
3 414 415 418
3 419 746 415
3 415 746 523
3 415 523 418
3 417 530 529
3 419 745 748
3 419 748 747
3 419 747 746
3 662 422 420
3 594 421 422
3 422 662 749
3 422 750 594
3 422 749 750
3 425 751 644
3 425 752 751
3 425 753 752
3 425 426 753
3 644 751 643
3 753 426 619
3 429 433 569
3 429 569 431
3 430 432 435
3 430 435 437
3 431 569 755
3 432 431 605
3 431 755 665
3 605 431 665
3 432 606 435
3 606 432 605
3 433 434 546
3 543 433 546
3 434 436 546
3 435 606 437
3 436 440 570
3 436 544 546
3 436 570 544
3 571 439 576
3 439 571 440
3 441 756 450
3 441 444 448
3 441 448 756
3 444 758 448
3 444 447 460
3 444 460 757
3 444 757 758
3 445 449 454
3 448 758 756
3 582 449 453
3 449 582 581
3 449 581 492
3 449 492 454
3 450 756 451
3 452 451 539
3 451 756 742
3 451 742 539
3 452 539 459
3 453 457 582
3 458 455 459
3 455 458 550
3 456 547 548
3 456 548 457
3 457 548 759
3 579 457 759
3 582 457 579
3 458 459 538
3 550 458 538
3 460 760 757
3 460 463 760
3 463 732 761
3 462 732 463
3 761 760 463
3 467 464 638
3 465 466 497
3 465 497 495
3 465 495 567
3 466 467 763
3 466 763 762
3 466 762 497
3 467 638 764
3 467 764 763
3 474 515 468
3 474 473 515
3 468 515 509
3 468 509 514
3 468 514 738
3 468 738 765
3 468 765 469
3 766 472 471
3 470 469 765
3 765 767 470
3 470 685 471
3 470 767 685
3 471 682 766
3 471 685 682
3 472 766 494
3 515 473 499
3 478 491 475
3 476 479 477
3 493 475 491
3 768 475 493
3 769 475 768
3 475 769 476
3 476 769 486
3 476 486 479
3 479 486 485
3 479 485 480
3 480 485 670
3 481 770 482
3 481 675 770
3 482 655 561
3 482 561 483
3 655 482 770
3 600 484 771
3 771 484 486
3 488 484 487
3 484 600 487
3 670 485 489
3 771 486 769
3 487 600 603
3 487 603 488
3 488 603 604
3 488 668 489
3 490 492 580
3 490 580 772
3 490 772 768
3 490 768 493
3 490 493 491
3 494 564 495
3 494 498 564
3 494 766 498
3 567 495 564
3 499 497 762
3 498 766 684
3 498 684 564
3 499 762 773
3 499 773 515
3 500 501 507
3 501 774 507
3 501 609 774
3 501 502 614
3 501 614 609
3 614 502 775
3 775 502 663
3 503 568 535
3 503 505 568
3 505 755 568
3 505 667 755
3 667 505 506
3 667 506 666
3 506 776 666
3 506 507 776
3 507 774 776
3 508 512 726
3 510 515 773
3 510 773 511
3 511 773 778
3 777 511 778
3 726 511 777
3 511 726 512
3 514 737 738
3 538 519 517
3 520 523 746
3 520 746 780
3 520 780 779
3 520 779 525
3 520 525 522
3 521 524 781
3 521 781 591
3 524 522 551
3 522 525 782
3 522 782 783
3 522 783 555
3 522 555 551
3 784 524 551
3 524 784 781
3 525 779 782
3 730 527 526
3 526 541 664
3 526 664 730
3 528 541 526
3 528 529 530
3 731 527 730
3 542 528 530
3 528 542 541
3 530 785 542
3 530 533 785
3 787 534 786
3 787 531 534
3 533 531 787
3 533 787 788
3 785 533 788
3 534 591 786
3 537 536 729
3 536 535 549
3 536 550 729
3 538 729 550
3 617 540 785
3 540 542 785
3 543 547 549
3 545 579 759
3 545 759 548
3 545 573 579
3 551 552 784
3 552 789 784
3 552 725 789
3 555 791 553
3 554 790 724
3 554 553 790
3 555 553 554
3 790 553 791
3 790 791 792
3 555 783 791
3 560 556 725
3 558 708 557
3 789 556 793
3 725 556 789
3 793 556 794
3 556 557 794
3 557 795 794
3 557 708 795
3 559 706 704
3 562 563 566
3 565 562 796
3 562 566 798
3 562 798 796
3 684 563 564
3 563 684 681
3 563 681 566
3 565 797 687
3 565 796 797
3 681 798 566
3 568 755 569
3 579 573 574
3 574 575 580
3 580 575 578
3 577 799 578
3 577 601 799
3 578 768 772
3 578 772 580
3 578 799 768
3 587 583 800
3 583 586 800
3 677 585 588
3 585 677 586
3 800 586 801
3 678 586 677
3 801 586 678
3 587 802 597
3 587 800 802
3 587 597 596
3 591 781 803
3 591 803 786
3 595 594 804
3 594 750 804
3 595 804 652
3 598 597 698
3 698 597 802
3 599 603 600
3 601 600 771
3 601 771 799
3 602 604 603
3 607 613 646
3 613 614 646
3 610 608 776
3 609 610 776
3 608 666 776
3 609 776 774
3 614 775 646
3 615 616 618
3 618 616 805
3 805 616 617
3 618 805 624
3 617 788 805
3 617 785 788
3 619 621 806
3 619 754 753
3 619 806 754
3 620 794 795
3 620 623 794
3 795 621 620
3 621 795 807
3 621 807 806
3 794 623 793
3 623 808 793
3 623 622 808
3 622 809 808
3 622 624 809
3 624 805 810
3 624 810 809
3 627 628 637
3 628 632 637
3 629 630 811
3 629 811 660
3 630 687 811
3 716 635 707
3 639 640 720
3 639 720 812
3 638 639 764
3 764 639 812
3 641 672 649
3 641 642 672
3 642 813 672
3 813 642 814
3 642 643 814
3 643 751 814
3 663 645 646
3 646 775 663
3 647 649 669
3 650 815 712
3 650 651 815
3 651 816 815
3 651 804 816
3 651 652 804
3 655 770 656
3 656 770 692
3 658 659 714
3 811 659 660
3 659 817 714
3 817 659 811
3 662 689 749
3 665 755 667
3 673 671 688
3 688 671 813
3 671 672 813
3 674 770 675
3 692 770 674
3 798 681 676
3 798 676 713
3 676 680 713
3 678 818 801
3 678 679 818
3 679 767 818
3 679 685 767
3 682 683 766
3 683 684 766
3 811 687 817
3 687 797 817
3 797 796 817
3 688 813 690
3 689 819 749
3 689 691 819
3 691 690 820
3 690 813 814
3 820 690 814
3 691 821 819
3 691 820 821
3 822 693 703
3 822 695 693
3 694 824 734
3 694 823 824
3 694 734 696
3 694 695 823
3 695 822 792
3 695 792 823
3 698 802 739
3 825 702 728
3 825 700 702
3 701 700 825
3 825 826 701
3 703 701 826
3 826 827 703
3 827 822 703
3 707 705 716
3 708 807 795
3 708 709 807
3 709 828 807
3 828 709 711
3 711 710 830
3 710 712 830
3 711 832 828
3 711 830 832
3 712 833 830
3 712 815 833
3 713 796 798
3 713 714 796
3 714 817 796
3 715 724 834
3 715 834 721
3 718 827 826
3 718 826 719
3 718 721 827
3 719 826 825
3 719 825 835
3 719 835 720
3 720 835 812
3 836 721 834
3 836 827 721
3 834 724 836
3 724 790 836
3 727 726 777
3 837 727 777
3 727 837 728
3 835 728 837
3 825 728 835
3 733 761 732
3 733 838 761
3 733 734 839
3 733 839 838
3 734 824 839
3 735 840 736
3 840 735 841
3 735 739 841
3 737 736 842
3 842 736 840
3 737 765 738
3 765 737 842
3 739 802 841
3 756 740 742
3 740 756 758
3 744 740 758
3 741 740 744
3 843 743 744
3 748 743 843
3 745 743 748
3 744 760 843
3 744 758 760
3 746 747 844
3 746 844 780
3 747 748 844
3 748 843 838
3 748 838 844
3 750 749 845
3 749 819 845
3 804 750 816
3 750 845 816
3 751 820 814
3 751 846 820
3 751 752 846
3 752 753 846
3 753 754 848
3 753 847 846
3 753 848 847
3 848 754 806
3 758 757 760
3 760 761 843
3 761 838 843
3 763 764 849
3 763 849 778
3 764 812 849
3 762 763 778
3 762 778 773
3 765 842 767
3 818 767 842
3 768 799 769
3 769 799 771
3 777 778 849
3 777 849 837
3 779 844 839
3 824 779 839
3 779 824 782
3 779 780 844
3 781 784 850
3 781 850 803
3 782 824 823
3 782 823 791
3 782 791 783
3 850 784 789
3 786 810 787
3 809 786 803
3 786 809 810
3 788 787 810
3 788 810 805
3 850 789 793
3 792 836 790
3 791 823 792
3 792 822 836
3 793 808 850
3 800 841 802
3 800 801 841
3 801 840 841
3 801 818 840
3 803 850 808
3 803 808 809
3 806 807 828
3 848 806 829
3 806 828 829
3 812 835 837
3 812 837 849
3 815 851 833
3 815 816 851
3 816 845 851
3 818 842 840
3 819 852 845
3 819 821 852
3 821 820 846
3 821 853 852
3 821 846 853
3 822 827 836
3 829 828 832
3 829 832 848
3 832 830 831
3 830 833 831
3 831 854 832
3 831 833 854
3 833 851 854
3 832 855 848
3 832 854 855
3 838 839 844
3 845 852 851
3 853 846 847
3 853 847 848
3 848 855 853
3 851 852 854
3 854 852 853
3 853 855 854
