ply
format ascii 1.0
comment https://github.com/mikedh/trimesh
element vertex 206
property float x
property float y
property float z
element face 408
property list uchar int vertex_indices
end_header
-2.090618 5.146463 3.576234
5.842491 8.917950 0.570795
-10.301262 1.243041 -2.563004
8.252184 7.711496 0.468810
5.008780 5.231184 3.242007
-0.145736 3.719043 3.921195
-11.021050 -1.901333 2.119312
-12.066940 -2.886795 -1.134790
-9.934877 -0.934825 -2.713173
-2.032152 1.883852 -4.110890
2.202155 4.835253 -3.631456
8.521218 6.901034 -1.405883
3.370738 8.695676 1.798074
-4.014660 8.771854 -1.593217
2.694678 8.374269 -2.151483
-9.605635 5.550217 -1.660973
-7.404315 3.573099 -3.127763
-12.939677 0.941661 0.442339
9.605635 5.550217 1.660973
0.200615 1.146118 4.199083
4.014660 -8.771854 -1.593217
9.605635 -5.550217 -1.660973
-9.291348 6.452322 1.211775
-7.076186 8.084764 1.011084
-10.415379 2.034507 2.405233
-8.388018 2.885180 3.001820
-4.016258 6.773732 2.855000
-6.339231 6.057781 2.698218
-5.381687 4.611347 3.318357
-6.356055 7.563254 1.906961
-9.686828 4.560311 2.111632
2.651827 7.571988 2.648308
-1.009591 7.735201 2.689215
2.107174 9.895697 0.285253
3.177401 9.367163 1.174632
-3.816592 9.474175 0.778561
0.379724 9.096637 1.779357
-1.169071 9.933280 0.612501
-4.109534 9.531310 -0.207247
4.915711 8.648260 -1.464867
3.121867 9.699341 -0.529499
-2.207438 7.844484 -2.540711
1.500062 7.180139 -2.926308
0.991231 9.387354 -1.459692
-0.592147 8.796934 -2.040463
-5.176557 8.843052 -1.146587
-8.734224 7.191331 -0.874331
-4.684517 4.084212 -3.553645
-3.661427 6.474493 -3.016462
-10.926060 3.903106 -1.664479
-9.015635 3.570459 -2.679309
-6.930711 5.621181 -2.681495
-9.331651 6.990136 0.343756
-12.881660 0.187202 -0.731407
-11.985183 2.517283 -1.334779
-11.140698 5.253901 -0.341665
-12.316428 1.853717 1.233053
-12.631023 2.644939 0.060823
8.275161 6.908211 1.531856
0.958025 6.009458 3.366084
5.524143 7.671598 2.084175
10.610207 2.898364 2.166664
9.477431 2.093995 2.778512
-2.185091 1.265830 4.146231
-8.311024 -2.067035 3.149444
0.019993 -5.657458 3.499246
-5.488473 -3.996903 3.443281
-3.969161 -2.418343 3.907679
-3.947443 2.530202 3.875469
-5.507534 -0.292095 3.820587
-11.062889 0.324390 2.231197
-12.390703 -0.493444 1.327696
-12.193412 -2.822767 0.994056
-11.825742 -0.068073 -1.788511
-6.479737 -8.747504 -0.101515
-9.760916 -6.028063 -1.209867
-10.798296 -5.664991 -0.337753
-7.451957 -0.568630 -3.472650
-1.406915 4.885146 -3.657926
-6.549931 1.931450 -3.574170
-0.234982 -5.237862 -3.600630
0.570779 -1.116268 -4.191019
-2.277630 -1.614175 -4.116421
5.198319 5.445446 -3.140273
6.493882 8.641274 -0.472213
4.899203 7.374494 -2.410862
11.003016 0.104796 -2.274023
11.228549 3.950551 -1.380328
9.817565 4.136013 -2.206335
9.291348 -6.452322 1.211775
7.076186 -8.084764 1.011084
8.387186 -2.373638 3.094485
9.686828 -4.560311 2.111632
10.717036 -1.699849 2.322790
4.540273 -6.972133 2.683485
5.559153 -4.149472 3.404939
2.644859 -5.726745 3.364969
6.356055 -7.563254 1.906961
7.295790 -5.329743 2.686289
-2.531186 -7.458028 2.723604
1.073961 -7.906291 2.589508
-2.107174 -9.895697 0.285253
-3.971486 -8.700223 1.690993
-4.803217 -9.267650 0.528517
3.816592 -9.474175 0.778561
1.169071 -9.933280 0.612501
-1.241599 -9.307832 1.575174
4.109534 -9.531310 -0.207247
-5.089716 -8.674379 -1.386135
-2.771274 -9.734359 -0.579414
2.207438 -7.844484 -2.540711
-2.725088 -8.107670 -2.342548
-0.002049 -6.985122 -3.038325
0.592147 -8.796934 -2.040463
5.176557 -8.843052 -1.146587
8.734224 -7.191331 -0.874331
1.991422 -5.580892 -3.434899
4.410856 -4.157710 -3.580281
3.975783 -6.526736 -2.947605
10.479131 -3.646723 -1.991280
7.760462 -3.122729 -3.138767
10.413330 -2.033535 -2.406304
7.735161 -5.040190 -2.682943
9.331651 -6.990136 0.343756
11.044247 -5.195073 -0.603866
11.839005 -0.899249 -1.712924
12.841054 -0.149901 -0.826600
12.218673 -2.305596 -1.123295
12.066561 -2.698000 1.156049
11.139273 -5.222560 0.070340
3.735825 -2.737165 3.877196
2.798642 -0.622098 4.112350
10.410903 0.037422 2.542990
7.322750 0.386272 3.501118
6.331550 2.279859 3.576195
2.669268 2.099961 4.030965
-6.741391 -7.718147 1.599767
-8.648509 -6.064198 1.871636
-5.308402 -7.195307 2.391155
-10.037244 -4.015916 2.118529
-7.808982 -4.546783 2.810148
-5.549920 -6.033691 2.851490
-4.276124 -6.546132 -2.888485
-6.574898 -5.078387 -2.955614
-5.751384 -7.405902 -2.159589
-7.491521 -6.956738 -1.836524
-8.710347 -3.385101 -2.812162
7.724722 -0.840801 -3.384949
6.153802 0.972984 -3.698308
5.507238 -2.053423 -3.725857
3.647759 -1.661010 -3.986526
4.046631 2.679707 -3.856541
11.877397 0.645499 1.715719
12.585677 1.661018 0.909081
11.946970 3.727112 0.669933
13.036795 0.907889 0.071031
12.473803 2.534990 -0.627285
10.603985 5.797143 0.428689
-2.702051 8.820542 1.818181
-1.157180 9.841788 -0.845142
-6.989673 8.505987 -0.187487
-6.648580 7.231116 -2.025482
-11.186186 4.620396 1.027686
2.853912 4.290661 3.708684
7.684129 4.925610 2.738070
-6.006515 2.446871 3.613998
-8.729383 0.110145 3.159689
-1.443160 -2.687140 4.052405
-11.134123 -2.359400 -1.982498
-9.789722 -6.655188 0.310759
-12.964706 -1.257012 -0.004361
-12.203560 -3.475456 -0.320244
0.345143 3.097961 -4.018278
-2.999493 -3.427046 -3.860345
-3.903695 0.470393 -4.018508
-0.259504 6.334626 -3.272017
8.990221 7.207926 -0.500933
9.543660 2.536112 -2.696584
7.921928 6.092424 -2.163334
2.702051 -8.820542 1.818181
1.157180 -9.841788 -0.845142
-0.991231 -9.387354 -1.459692
6.989673 -8.505987 -0.187487
6.648580 -7.231116 -2.025482
11.186186 -4.620396 1.027686
11.276342 -3.741149 -1.449191
12.435386 -1.082563 1.232431
12.700001 -2.466480 0.055229
0.329127 -0.821475 4.200049
1.522870 -3.176861 3.973840
6.224003 -1.712676 3.637405
4.509485 1.150554 3.937162
-10.819335 -5.178758 1.006753
-7.913249 -7.662888 0.958881
-2.902999 -5.186806 3.493813
-5.850255 -2.816405 -3.604336
-3.279401 -5.459909 -3.381220
-8.116703 -7.665458 -0.768353
-9.114838 -5.167604 -2.127512
7.231900 3.402991 -3.234356
9.020574 0.387630 -3.048590
0.945078 -3.357393 -3.968681
2.846016 0.518715 -4.125023
11.276342 3.741149 1.449191
11.759249 1.783786 -1.684426
11.544101 4.653878 -0.421895
3 52 23 160
3 52 22 23
3 22 29 23
3 25 30 24
3 28 26 27
3 28 0 26
3 30 22 162
3 29 22 30
3 28 25 165
3 30 25 27
3 28 27 25
3 29 27 26
3 27 29 30
3 23 35 160
3 160 35 38
3 29 35 23
3 29 158 35
3 32 0 59
3 36 32 31
3 29 26 158
3 32 158 26
3 59 31 32
3 26 0 32
3 1 33 34
3 32 36 158
3 36 12 34
3 36 31 12
3 34 33 37
3 36 34 37
3 35 158 37
3 36 37 158
3 38 45 160
3 37 38 35
3 37 159 38
3 159 13 45
3 38 159 45
3 40 1 84
3 43 40 39
3 37 33 159
3 40 159 33
3 84 39 40
3 33 1 40
3 14 42 44
3 175 41 42
3 41 44 42
3 40 43 159
3 43 14 44
3 43 39 14
3 13 44 41
3 13 159 44
3 44 159 43
3 13 161 45
3 15 46 161
3 45 161 46
3 46 160 45
3 48 175 78
3 51 48 47
3 13 41 161
3 48 161 41
3 78 47 48
3 41 175 48
3 2 49 50
3 48 51 161
3 51 16 50
3 51 47 16
3 50 49 15
3 51 50 15
3 15 161 51
3 52 160 46
3 46 15 55
3 22 52 162
3 55 162 52
3 52 46 55
3 54 2 73
3 57 54 53
3 73 53 54
3 49 2 54
3 24 56 70
3 70 56 71
3 30 56 24
3 30 162 56
3 57 17 56
3 15 49 55
3 54 57 55
3 54 55 49
3 57 53 17
3 56 162 57
3 162 55 57
3 34 12 60
3 34 60 1
3 60 58 1
3 58 3 1
3 12 31 60
3 4 60 31
3 163 4 59
3 59 4 31
3 61 62 132
3 134 62 164
3 61 164 62
3 4 164 60
3 4 134 164
3 61 203 18
3 164 61 18
3 164 58 60
3 18 58 164
3 28 68 0
3 28 165 68
3 68 63 0
3 63 5 0
3 166 24 70
3 69 166 64
3 25 166 165
3 25 24 166
3 167 194 65
3 194 167 67
3 166 69 165
3 64 66 67
3 69 64 67
3 167 188 63
3 19 63 188
3 67 167 63
3 69 67 63
3 68 165 63
3 69 63 165
3 70 71 6
3 17 71 56
3 17 170 71
3 72 71 170
3 6 71 72
3 17 53 170
3 7 170 53
3 168 7 73
3 73 7 53
3 169 197 74
3 197 169 76
3 7 171 170
3 7 75 76
3 171 7 76
3 76 169 192
3 171 76 192
3 171 72 170
3 192 72 171
3 50 16 79
3 50 79 2
3 79 77 2
3 77 8 2
3 16 47 79
3 9 79 47
3 172 9 78
3 78 9 47
3 173 201 80
3 201 173 82
3 9 174 79
3 9 81 82
3 174 9 82
3 82 173 195
3 174 82 195
3 174 77 79
3 195 77 174
3 10 175 42
3 42 14 85
3 85 83 42
3 83 10 42
3 14 39 85
3 11 85 39
3 176 11 84
3 84 11 39
3 177 204 86
3 204 177 88
3 11 178 85
3 11 87 88
3 178 11 88
3 88 177 199
3 178 88 199
3 178 83 85
3 199 83 178
3 123 90 182
3 123 89 90
3 89 97 90
3 91 92 93
3 95 96 94
3 92 89 184
3 97 89 92
3 95 94 98
3 92 91 98
3 95 98 91
3 98 97 92
3 94 97 98
3 90 104 182
3 182 104 107
3 97 104 90
3 97 179 104
3 106 100 99
3 97 94 179
3 100 179 94
3 99 100 65
3 94 96 100
3 65 100 96
3 106 102 103
3 101 106 103
3 100 106 179
3 106 99 102
3 106 101 105
3 104 179 105
3 106 105 179
3 107 114 182
3 105 107 104
3 105 180 107
3 180 20 114
3 107 180 114
3 181 109 108
3 105 101 180
3 109 180 101
3 108 109 74
3 101 103 109
3 74 109 103
3 113 111 112
3 110 113 112
3 109 181 180
3 181 111 113
3 181 108 111
3 20 113 110
3 20 180 113
3 113 180 181
3 20 183 114
3 21 115 183
3 114 183 115
3 115 182 114
3 80 116 112
3 122 118 117
3 20 110 183
3 118 183 110
3 117 118 116
3 110 112 118
3 116 118 112
3 122 120 121
3 119 122 121
3 118 122 183
3 122 117 120
3 119 185 21
3 122 119 21
3 21 183 122
3 123 182 115
3 115 21 124
3 89 123 184
3 129 184 123
3 123 115 124
3 124 129 123
3 86 125 121
3 187 127 126
3 126 127 125
3 119 121 185
3 125 185 121
3 125 127 185
3 186 152 93
3 92 128 93
3 92 184 128
3 155 186 187
3 93 128 186
3 187 186 128
3 21 185 124
3 185 127 124
3 127 187 124
3 126 155 187
3 128 184 187
3 187 129 124
3 184 129 187
3 96 189 65
3 65 189 167
3 95 130 96
3 167 189 188
3 131 188 189
3 96 130 189
3 131 189 130
3 62 134 133
3 95 91 190
3 133 190 91
3 132 91 93
3 91 132 133
3 62 133 132
3 0 5 59
3 59 5 163
3 63 19 5
3 4 163 134
3 191 134 163
3 135 5 19
3 191 163 135
3 5 135 163
3 130 95 190
3 188 131 19
3 135 19 131
3 191 133 134
3 190 133 191
3 135 131 191
3 130 190 131
3 191 131 190
3 103 193 74
3 74 193 169
3 102 136 103
3 169 193 192
3 137 192 193
3 103 136 193
3 137 193 136
3 99 65 194
3 67 66 194
3 102 99 138
3 141 138 99
3 141 99 194
3 66 141 194
3 70 6 166
3 72 192 139
3 72 139 6
3 66 64 140
3 140 64 139
3 6 64 166
3 64 6 139
3 136 102 138
3 141 66 140
3 192 137 139
3 138 141 140
3 139 137 140
3 136 138 137
3 140 137 138
3 112 196 80
3 80 196 173
3 111 142 112
3 173 196 195
3 143 195 196
3 112 142 196
3 143 196 142
3 108 74 197
3 76 75 197
3 111 108 144
3 145 144 108
3 145 108 197
3 75 145 197
3 2 8 73
3 73 8 168
3 77 195 146
3 77 146 8
3 75 7 198
3 7 168 198
3 198 168 146
3 8 146 168
3 142 111 144
3 145 75 198
3 195 143 146
3 144 145 198
3 146 143 198
3 142 144 143
3 198 143 144
3 121 200 86
3 86 200 177
3 120 147 121
3 177 200 199
3 148 199 200
3 121 147 200
3 148 200 147
3 80 201 116
3 117 116 201
3 82 81 201
3 120 117 149
3 150 149 117
3 150 117 201
3 81 150 201
3 175 10 78
3 78 10 172
3 83 199 151
3 83 151 10
3 81 9 202
3 9 172 202
3 202 172 151
3 10 151 172
3 147 120 149
3 150 81 202
3 199 148 151
3 149 150 202
3 151 148 202
3 147 149 148
3 202 148 149
3 93 152 132
3 61 132 152
3 186 155 153
3 186 153 152
3 154 203 153
3 152 203 61
3 152 153 203
3 86 204 125
3 126 125 204
3 88 87 204
3 156 155 126
3 156 126 204
3 87 156 204
3 1 3 84
3 84 3 176
3 58 18 157
3 58 157 3
3 87 11 205
3 11 176 205
3 205 176 157
3 3 157 176
3 156 87 205
3 18 203 157
3 203 154 157
3 155 156 205
3 157 154 205
3 153 155 154
3 205 154 155
